
<svg width="12px" height="12px" viewBox="0 0 12 12">
    <g stroke="none" stroke-width="1" fill="none" fill-rule="evenodd">
        <g transform="translate(-446.000000, -137.000000)" fill="#CCCCCC">
            <path d="M454.266258,146.622773 C452.210883,148.040238 449.37382,147.834656 447.54519,146.006025 C445.484937,143.945772 445.484937,140.605443 447.54519,138.54519 C449.605443,136.484937 452.945772,136.484937 455.006025,138.54519 C456.834656,140.37382 457.040238,143.210883 455.622773,145.266258 L457.719056,147.362541 C458.093648,147.737132 458.093648,148.344465 457.719056,148.719056 C457.344465,149.093648 456.737132,149.093648 456.362541,148.719056 L454.266258,146.622773 Z M453.64951,144.64951 C454.96058,143.33844 454.96058,141.212775 453.64951,139.901705 C452.33844,138.590635 450.212775,138.590635 448.901705,139.901705 C447.590635,141.212775 447.590635,143.33844 448.901705,144.64951 C450.212775,145.96058 452.33844,145.96058 453.64951,144.64951 Z"></path>
        </g>
    </g>
</svg>