<?xml version="1.0" encoding="UTF-8"?>
<svg width="16px" height="14px" viewBox="0 0 16 14" version="1.1" xmlns="http://www.w3.org/2000/svg" xmlns:xlink="http://www.w3.org/1999/xlink">
    <!-- Generator: Sketch 47.1 (45422) - http://www.bohemiancoding.com/sketch -->
    <title>back_icon</title>
    <desc>Created with Sketch.</desc>
    <defs></defs>
    <g id="PC浏览器2017.11" stroke="none" stroke-width="1" fill="none" fill-rule="evenodd">
        <g id="PC浏览器登录服务器地址" transform="translate(-780.000000, -406.000000)" fill="#666666">
            <g id="服务器" transform="translate(760.000000, 386.000000)">
                <path d="M23.5160055,28 L27.6939806,32.2048957 C28.1020065,32.6155507 28.1020065,33.2813539 27.6939806,33.6920088 C27.2859548,34.1026637 26.6244142,34.1026637 26.2163884,33.6920088 L20.3060194,27.7435565 C20.1020065,27.5382291 20,27.2691145 20,27 C20,26.7308855 20.1020065,26.4617709 20.3060194,26.2564435 L26.2163884,20.3079912 C26.6244142,19.8973363 27.2859548,19.8973363 27.6939806,20.3079912 C28.1020065,20.7186461 28.1020065,21.3844493 27.6939806,21.7951043 L23.5160055,26 L35,26 C35.5522847,26 36,26.4477153 36,27 C36,27.5522847 35.5522847,28 35,28 L23.5160055,28 Z" id="back_icon"></path>
            </g>
        </g>
    </g>
</svg>