<?xml version="1.0" encoding="UTF-8"?>
<svg width="20px" height="20px" viewBox="0 0 20 20" version="1.1" xmlns="http://www.w3.org/2000/svg" xmlns:xlink="http://www.w3.org/1999/xlink">
    <!-- Generator: Sketch 47.1 (45422) - http://www.bohemiancoding.com/sketch -->
    <title>search_icon</title>
    <desc>Created with Sketch.</desc>
    <defs></defs>
    <g id="PC浏览器2017.11" stroke="none" stroke-width="1" fill="none" fill-rule="evenodd">
        <g id="首页下载提示" transform="translate(-1290.000000, -280.000000)" fill="#999999">
            <g id="页面" transform="translate(0.000000, 110.000000)">
                <g id="搜索" transform="translate(600.000000, 160.000000)">
                    <path d="M706.1132,24.691844 L709.705627,28.2842712 C710.098124,28.6767679 710.098124,29.3131308 709.705627,29.7056275 C709.313131,30.0981242 708.676768,30.0981242 708.284271,29.7056275 L704.691844,26.1132002 C701.140305,28.9576938 695.941607,28.7338133 692.649353,25.4415588 C689.116882,21.9090886 689.116882,16.1818228 692.649353,12.6493526 C696.181823,9.11688245 701.909089,9.11688245 705.441559,12.6493526 C708.733813,15.9416072 708.957694,21.1403049 706.1132,24.691844 Z M704.020203,24.0202025 C706.767679,21.2727257 706.767679,16.8181857 704.020203,14.0707089 C701.272726,11.3232321 696.818186,11.3232321 694.070709,14.0707089 C691.323232,16.8181857 691.323232,21.2727257 694.070709,24.0202025 C696.818186,26.7676793 701.272726,26.7676793 704.020203,24.0202025 Z" id="search_icon"></path>
                </g>
            </g>
        </g>
    </g>
</svg>